Este archivo wav procede de Room EQ Wizard --> Export IR as wav (32bit mono)

esto es lo que dice sox de este archivo

Input File     : 'Average 1-filters.wav'
Channels       : 1
Sample Rate    : 44100
Precision      : 32-bit
Duration       : 00:00:02.97 = 131072 samples = 222.912 CDDA sectors
File Size      : 524k
Bit Rate       : 1.41M
Sample Encoding: 32-bit Signed Integer PCM


